<mxfile host="app.diagrams.net" modified="2021-06-09T03:34:49.814Z" agent="5.0 (X11; Linux x86_64) AppleWebKit/537.36 (KHTML, like Gecko) Chrome/88.0.4324.150 Safari/537.36" etag="LpESRrCWd4IvB15Szriw" version="14.7.6" type="github">
  <diagram name="Page-1" id="42789a77-a242-8287-6e28-9cd8cfd52e62">
    <mxGraphModel dx="1359" dy="777" grid="1" gridSize="10" guides="1" tooltips="1" connect="1" arrows="1" fold="1" page="1" pageScale="1" pageWidth="1100" pageHeight="850" background="#ffffff" math="0" shadow="0">
      <root>
        <mxCell id="0" />
        <mxCell id="1" parent="0" />
        <mxCell id="HCPORMF9YuhPEiCMrQG7-4" style="rounded=0;orthogonalLoop=1;jettySize=auto;html=1;entryX=0.5;entryY=0;entryDx=0;entryDy=0;" edge="1" parent="1" source="1ea317790d2ca983-1" target="E7qCEXml-a51oX7vlCE2-36">
          <mxGeometry relative="1" as="geometry" />
        </mxCell>
        <mxCell id="1ea317790d2ca983-1" value="1.body part locate" style="ellipse;whiteSpace=wrap;html=1;rounded=0;shadow=1;comic=0;labelBackgroundColor=none;strokeWidth=1;fontFamily=Verdana;fontSize=12;align=center;fillColor=#f8cecc;strokeColor=#b85450;" parent="1" vertex="1">
          <mxGeometry x="380" y="80" width="90" height="60" as="geometry" />
        </mxCell>
        <mxCell id="E7qCEXml-a51oX7vlCE2-6" value="START" style="ellipse;whiteSpace=wrap;html=1;" parent="1" vertex="1">
          <mxGeometry x="374" width="102" height="60" as="geometry" />
        </mxCell>
        <mxCell id="E7qCEXml-a51oX7vlCE2-13" value="" style="endArrow=classic;html=1;" parent="1" source="E7qCEXml-a51oX7vlCE2-6" target="1ea317790d2ca983-1" edge="1">
          <mxGeometry width="50" height="50" relative="1" as="geometry">
            <mxPoint x="520" y="370" as="sourcePoint" />
            <mxPoint x="570" y="320" as="targetPoint" />
          </mxGeometry>
        </mxCell>
        <mxCell id="E7qCEXml-a51oX7vlCE2-36" value="15.liver scouting" style="ellipse;whiteSpace=wrap;html=1;fillColor=#f8cecc;strokeColor=#b85450;" parent="1" vertex="1">
          <mxGeometry x="380" y="170" width="90" height="55" as="geometry" />
        </mxCell>
        <mxCell id="5_JmjyVL1ZinbIajblGN-1" style="rounded=0;orthogonalLoop=1;jettySize=auto;html=1;exitX=1;exitY=0.5;exitDx=0;exitDy=0;" parent="1" source="E7qCEXml-a51oX7vlCE2-45" target="_9MSTqD4jc4uetIKMzi9-1" edge="1">
          <mxGeometry relative="1" as="geometry" />
        </mxCell>
        <mxCell id="E7qCEXml-a51oX7vlCE2-45" value="16.liver phase detect" style="ellipse;whiteSpace=wrap;html=1;fillColor=#f8cecc;strokeColor=#b85450;" parent="1" vertex="1">
          <mxGeometry x="380" y="260" width="93.5" height="60" as="geometry" />
        </mxCell>
        <mxCell id="E7qCEXml-a51oX7vlCE2-46" value="" style="endArrow=classic;html=1;" parent="1" source="E7qCEXml-a51oX7vlCE2-36" target="E7qCEXml-a51oX7vlCE2-45" edge="1">
          <mxGeometry width="50" height="50" relative="1" as="geometry">
            <mxPoint x="520" y="370" as="sourcePoint" />
            <mxPoint x="570" y="320" as="targetPoint" />
          </mxGeometry>
        </mxCell>
        <mxCell id="HCPORMF9YuhPEiCMrQG7-10" style="edgeStyle=none;rounded=0;orthogonalLoop=1;jettySize=auto;html=1;exitX=0;exitY=0.5;exitDx=0;exitDy=0;entryX=1;entryY=0.5;entryDx=0;entryDy=0;" edge="1" parent="1" source="E7qCEXml-a51oX7vlCE2-47" target="E7qCEXml-a51oX7vlCE2-68">
          <mxGeometry relative="1" as="geometry" />
        </mxCell>
        <mxCell id="E7qCEXml-a51oX7vlCE2-47" value="17.liver organ segment" style="ellipse;whiteSpace=wrap;html=1;fillColor=#f8cecc;strokeColor=#b85450;" parent="1" vertex="1">
          <mxGeometry x="376.75" y="360" width="100" height="60" as="geometry" />
        </mxCell>
        <mxCell id="E7qCEXml-a51oX7vlCE2-50" value="" style="endArrow=classic;html=1;entryX=0.5;entryY=0;entryDx=0;entryDy=0;exitX=0.5;exitY=1;exitDx=0;exitDy=0;" parent="1" source="E7qCEXml-a51oX7vlCE2-45" target="E7qCEXml-a51oX7vlCE2-47" edge="1">
          <mxGeometry width="50" height="50" relative="1" as="geometry">
            <mxPoint x="590" y="400" as="sourcePoint" />
            <mxPoint x="470" y="410" as="targetPoint" />
          </mxGeometry>
        </mxCell>
        <mxCell id="uME0hAM4aX24SPmoG4YC-3" style="rounded=0;orthogonalLoop=1;jettySize=auto;html=1;" parent="1" source="E7qCEXml-a51oX7vlCE2-51" target="uME0hAM4aX24SPmoG4YC-2" edge="1">
          <mxGeometry relative="1" as="geometry" />
        </mxCell>
        <mxCell id="_9MSTqD4jc4uetIKMzi9-3" style="edgeStyle=none;rounded=0;orthogonalLoop=1;jettySize=auto;html=1;" parent="1" source="E7qCEXml-a51oX7vlCE2-51" target="E7qCEXml-a51oX7vlCE2-69" edge="1">
          <mxGeometry relative="1" as="geometry" />
        </mxCell>
        <mxCell id="_9MSTqD4jc4uetIKMzi9-5" style="edgeStyle=none;rounded=0;orthogonalLoop=1;jettySize=auto;html=1;entryX=0.5;entryY=0;entryDx=0;entryDy=0;" parent="1" source="E7qCEXml-a51oX7vlCE2-51" target="E7qCEXml-a51oX7vlCE2-53" edge="1">
          <mxGeometry relative="1" as="geometry" />
        </mxCell>
        <mxCell id="HCPORMF9YuhPEiCMrQG7-5" style="edgeStyle=none;rounded=0;orthogonalLoop=1;jettySize=auto;html=1;exitX=1;exitY=1;exitDx=0;exitDy=0;" edge="1" parent="1" source="E7qCEXml-a51oX7vlCE2-51" target="E7qCEXml-a51oX7vlCE2-59">
          <mxGeometry relative="1" as="geometry" />
        </mxCell>
        <mxCell id="HCPORMF9YuhPEiCMrQG7-6" style="edgeStyle=none;rounded=0;orthogonalLoop=1;jettySize=auto;html=1;" edge="1" parent="1" source="E7qCEXml-a51oX7vlCE2-51" target="E7qCEXml-a51oX7vlCE2-78">
          <mxGeometry relative="1" as="geometry" />
        </mxCell>
        <mxCell id="E7qCEXml-a51oX7vlCE2-51" value="18.liver vessel segment" style="ellipse;whiteSpace=wrap;html=1;fillColor=#f8cecc;strokeColor=#b85450;" parent="1" vertex="1">
          <mxGeometry x="280" y="450" width="110" height="60" as="geometry" />
        </mxCell>
        <mxCell id="E7qCEXml-a51oX7vlCE2-52" value="" style="endArrow=classic;html=1;entryX=0.5;entryY=0;entryDx=0;entryDy=0;exitX=0;exitY=1;exitDx=0;exitDy=0;" parent="1" source="E7qCEXml-a51oX7vlCE2-47" target="E7qCEXml-a51oX7vlCE2-51" edge="1">
          <mxGeometry width="50" height="50" relative="1" as="geometry">
            <mxPoint x="520" y="480" as="sourcePoint" />
            <mxPoint x="570" y="430" as="targetPoint" />
          </mxGeometry>
        </mxCell>
        <mxCell id="E7qCEXml-a51oX7vlCE2-53" value="19.liver vessel naming" style="ellipse;whiteSpace=wrap;html=1;fillColor=#f8cecc;strokeColor=#b85450;" parent="1" vertex="1">
          <mxGeometry x="60" y="650" width="100" height="60" as="geometry" />
        </mxCell>
        <mxCell id="HCPORMF9YuhPEiCMrQG7-13" style="edgeStyle=none;rounded=0;orthogonalLoop=1;jettySize=auto;html=1;exitX=1;exitY=1;exitDx=0;exitDy=0;" edge="1" parent="1" source="E7qCEXml-a51oX7vlCE2-55" target="E7qCEXml-a51oX7vlCE2-61">
          <mxGeometry relative="1" as="geometry" />
        </mxCell>
        <mxCell id="E7qCEXml-a51oX7vlCE2-55" value="20.liver registration" style="ellipse;whiteSpace=wrap;html=1;fillColor=#f8cecc;strokeColor=#b85450;" parent="1" vertex="1">
          <mxGeometry x="473.5" y="450" width="100" height="60" as="geometry" />
        </mxCell>
        <mxCell id="E7qCEXml-a51oX7vlCE2-58" value="" style="endArrow=classic;html=1;" parent="1" source="E7qCEXml-a51oX7vlCE2-47" target="E7qCEXml-a51oX7vlCE2-55" edge="1">
          <mxGeometry width="50" height="50" relative="1" as="geometry">
            <mxPoint x="520" y="640" as="sourcePoint" />
            <mxPoint x="570" y="590" as="targetPoint" />
          </mxGeometry>
        </mxCell>
        <mxCell id="HCPORMF9YuhPEiCMrQG7-14" style="edgeStyle=none;rounded=0;orthogonalLoop=1;jettySize=auto;html=1;entryX=0;entryY=0.5;entryDx=0;entryDy=0;" edge="1" parent="1" source="E7qCEXml-a51oX7vlCE2-59" target="E7qCEXml-a51oX7vlCE2-61">
          <mxGeometry relative="1" as="geometry" />
        </mxCell>
        <mxCell id="E7qCEXml-a51oX7vlCE2-59" value="21.liver lesion segment" style="ellipse;whiteSpace=wrap;html=1;fillColor=#f8cecc;strokeColor=#b85450;" parent="1" vertex="1">
          <mxGeometry x="400" y="550" width="100" height="60" as="geometry" />
        </mxCell>
        <mxCell id="GINKurjGJZbwQ9dIIqyE-2" style="rounded=0;orthogonalLoop=1;jettySize=auto;html=1;exitX=1;exitY=1;exitDx=0;exitDy=0;" parent="1" source="E7qCEXml-a51oX7vlCE2-61" target="E7qCEXml-a51oX7vlCE2-66" edge="1">
          <mxGeometry relative="1" as="geometry" />
        </mxCell>
        <mxCell id="E7qCEXml-a51oX7vlCE2-61" value="22.liver lesion instantiation" style="ellipse;whiteSpace=wrap;html=1;fillColor=#f8cecc;strokeColor=#b85450;" parent="1" vertex="1">
          <mxGeometry x="545" y="550" width="110" height="60" as="geometry" />
        </mxCell>
        <mxCell id="_9MSTqD4jc4uetIKMzi9-2" style="rounded=0;orthogonalLoop=1;jettySize=auto;html=1;exitX=0;exitY=0.5;exitDx=0;exitDy=0;" parent="1" source="E7qCEXml-a51oX7vlCE2-64" target="E7qCEXml-a51oX7vlCE2-69" edge="1">
          <mxGeometry relative="1" as="geometry" />
        </mxCell>
        <mxCell id="E7qCEXml-a51oX7vlCE2-64" value="23. liver lesion projection" style="ellipse;whiteSpace=wrap;html=1;fillColor=#f8cecc;strokeColor=#b85450;" parent="1" vertex="1">
          <mxGeometry x="476.75" y="650" width="110" height="60" as="geometry" />
        </mxCell>
        <mxCell id="E7qCEXml-a51oX7vlCE2-65" value="" style="endArrow=classic;html=1;exitX=0.309;exitY=0.957;exitDx=0;exitDy=0;entryX=0.5;entryY=0;entryDx=0;entryDy=0;exitPerimeter=0;" parent="1" source="E7qCEXml-a51oX7vlCE2-61" target="E7qCEXml-a51oX7vlCE2-64" edge="1">
          <mxGeometry width="50" height="50" relative="1" as="geometry">
            <mxPoint x="520" y="790" as="sourcePoint" />
            <mxPoint x="570" y="740" as="targetPoint" />
          </mxGeometry>
        </mxCell>
        <mxCell id="E7qCEXml-a51oX7vlCE2-66" value="24.liver lesion diagnosis" style="ellipse;whiteSpace=wrap;html=1;" parent="1" vertex="1">
          <mxGeometry x="610" y="650" width="100" height="60" as="geometry" />
        </mxCell>
        <mxCell id="E7qCEXml-a51oX7vlCE2-68" value="25.liver convex grading" style="ellipse;whiteSpace=wrap;html=1;" parent="1" vertex="1">
          <mxGeometry x="205" y="360" width="100" height="60" as="geometry" />
        </mxCell>
        <mxCell id="E7qCEXml-a51oX7vlCE2-69" value="26.liver tdc calculation" style="ellipse;whiteSpace=wrap;html=1;" parent="1" vertex="1">
          <mxGeometry x="317.5" y="650" width="100" height="60" as="geometry" />
        </mxCell>
        <mxCell id="E7qCEXml-a51oX7vlCE2-78" value="27.liver spleen ratio calculation" style="ellipse;whiteSpace=wrap;html=1;" parent="1" vertex="1">
          <mxGeometry x="190" y="650" width="105" height="60" as="geometry" />
        </mxCell>
        <mxCell id="uME0hAM4aX24SPmoG4YC-2" value="26.liver center line" style="ellipse;whiteSpace=wrap;html=1;fillColor=#f8cecc;strokeColor=#b85450;rotation=1;" parent="1" vertex="1">
          <mxGeometry x="80" y="490" width="100" height="60" as="geometry" />
        </mxCell>
        <mxCell id="_9MSTqD4jc4uetIKMzi9-1" value="32 Abdomen&lt;br&gt;BoneSegment" style="ellipse;whiteSpace=wrap;html=1;rounded=0;shadow=1;comic=0;labelBackgroundColor=none;strokeWidth=1;fontFamily=Verdana;fontSize=12;align=center;" parent="1" vertex="1">
          <mxGeometry x="550" y="260" width="100" height="60" as="geometry" />
        </mxCell>
      </root>
    </mxGraphModel>
  </diagram>
</mxfile>
